<svg width="49" height="39" viewBox="0 0 49 39" fill="none" xmlns="http://www.w3.org/2000/svg">
<g filter="url(#filter0_d_2001_2103)">
<circle cx="32" cy="22" r="16" fill="white"/>
<circle cx="32" cy="22" r="15.5" stroke="#EFF2F7"/>
</g>
<g clip-path="url(#clip0_2001_2103)">
<path d="M35.3371 16.75L34.5128 15.6813C34.3487 15.4701 34.1385 15.2989 33.8984 15.1809C33.6583 15.0628 33.3944 15.001 33.1268 15H30.8728C30.6053 15.001 30.3414 15.0628 30.1013 15.1809C29.8612 15.2989 29.651 15.4701 29.4868 15.6813L28.6626 16.75H35.3371Z" fill="#8A90A5"/>
<path d="M32.0001 25.5002C33.2887 25.5002 34.3334 24.4555 34.3334 23.1668C34.3334 21.8782 33.2887 20.8335 32.0001 20.8335C30.7114 20.8335 29.6667 21.8782 29.6667 23.1668C29.6667 24.4555 30.7114 25.5002 32.0001 25.5002Z" fill="#8A90A5"/>
<path d="M36.0833 17.9165H27.9167C27.1434 17.9174 26.4021 18.225 25.8553 18.7718C25.3085 19.3186 25.0009 20.0599 25 20.8332V26.0832C25.0009 26.8564 25.3085 27.5977 25.8553 28.1445C26.4021 28.6913 27.1434 28.9989 27.9167 28.9998H36.0833C36.8566 28.9989 37.5979 28.6913 38.1447 28.1445C38.6915 27.5977 38.9991 26.8564 39 26.0832V20.8332C38.9991 20.0599 38.6915 19.3186 38.1447 18.7718C37.5979 18.225 36.8566 17.9174 36.0833 17.9165ZM32 26.6665C31.3078 26.6665 30.6311 26.4612 30.0555 26.0766C29.4799 25.6921 29.0313 25.1454 28.7664 24.5059C28.5015 23.8663 28.4322 23.1626 28.5673 22.4837C28.7023 21.8047 29.0356 21.1811 29.5251 20.6916C30.0146 20.2021 30.6383 19.8688 31.3172 19.7338C31.9961 19.5987 32.6999 19.668 33.3394 19.9329C33.9789 20.1978 34.5256 20.6464 34.9101 21.222C35.2947 21.7976 35.5 22.4743 35.5 23.1665C35.4991 24.0945 35.13 24.9842 34.4739 25.6403C33.8177 26.2965 32.928 26.6656 32 26.6665Z" fill="#8A90A5"/>
</g>
<defs>
<filter id="filter0_d_2001_2103" x="0" y="0" width="64" height="64" filterUnits="userSpaceOnUse" color-interpolation-filters="sRGB">
<feFlood flood-opacity="0" result="BackgroundImageFix"/>
<feColorMatrix in="SourceAlpha" type="matrix" values="0 0 0 0 0 0 0 0 0 0 0 0 0 0 0 0 0 0 127 0" result="hardAlpha"/>
<feOffset dy="10"/>
<feGaussianBlur stdDeviation="8"/>
<feComposite in2="hardAlpha" operator="out"/>
<feColorMatrix type="matrix" values="0 0 0 0 0.12549 0 0 0 0 0.317647 0 0 0 0 0.537255 0 0 0 0.06 0"/>
<feBlend mode="normal" in2="BackgroundImageFix" result="effect1_dropShadow_2001_2103"/>
<feBlend mode="normal" in="SourceGraphic" in2="effect1_dropShadow_2001_2103" result="shape"/>
</filter>
<clipPath id="clip0_2001_2103">
<rect width="14" height="14" fill="white" transform="translate(25 15)"/>
</clipPath>
</defs>
</svg>
